<svg xmlns="http://www.w3.org/2000/svg" xmlns:xlink="http://www.w3.org/1999/xlink" xmlns:a="http://ns.adobe.com/AdobeSVGViewerExtensions/3.0/"><defs>
</defs><symbol id="svg-arrow-right" viewBox="0 0 11.4 11.4">
	<polygon points="5.7,0 4.3,1.4 7.6,4.7 0,4.7 0,6.7 7.6,6.7 4.3,10 5.7,11.4 11.4,5.7 "/>
</symbol><symbol id="svg-dl" viewBox="0 0 21.7 27.1">
	<polygon points="11,21.8 11,21.8 21.7,11.1 21,10.4 11.3,20.1 11.3,0 10.3,0 10.3,20 0.7,10.4 0,11.1 10.8,21.9 	"/>
	<rect x="0.6" y="26.1" width="20.7" height="1"/>
</symbol><symbol id="svg-fb" viewBox="0 0 7.8 15.3">
	 <path id="f_1_" class="st0" d="M5.1,15.3v-7h2.3l0.4-2.7H5.1V3.9c0-0.8,0.2-1.3,1.3-1.3h1.4V0.1C7.6,0.1,6.7,0,5.7,0
	C3.8,0,2.3,1.3,2.3,3.6v2H0v2.7h2.3v7H5.1z"/>
</symbol><symbol id="svg-insta" viewBox="0 0 15.8 15.9">
	 <path class="st0" d="M8,1.5c2.1,0,2.4,0,3.2,0s1.2,0.2,1.5,0.3c0.4,0.1,0.6,0.3,0.9,0.6s0.5,0.5,0.6,0.9c0.1,0.3,0.2,0.7,0.3,1.5
			c0,0.8,0,1.1,0,3.2s0,2.4,0,3.2s-0.2,1.2-0.3,1.5c-0.1,0.4-0.3,0.6-0.6,0.9c-0.3,0.3-0.5,0.5-0.9,0.6c-0.3,0.1-0.7,0.2-1.5,0.3
			c-0.8,0-1.1,0-3.2,0s-2.4,0-3.2,0c-0.8,0-1.2-0.2-1.5-0.3c-0.4-0.1-0.6-0.3-0.9-0.6c-0.3-0.3-0.5-0.5-0.6-0.9
			c-0.1-0.3-0.2-0.7-0.3-1.5c0-0.8,0-1.1,0-3.2s0-2.4,0-3.2c0-0.8,0.2-1.2,0.3-1.5c0.1-0.4,0.3-0.6,0.6-0.9c0.2-0.3,0.5-0.5,0.9-0.6
			C3.6,1.7,4,1.6,4.8,1.5C5.6,1.5,5.8,1.5,8,1.5 M8,0C5.8,0,5.6,0,4.7,0C3.9,0,3.3,0.2,2.8,0.4c-0.5,0.2-1,0.5-1.4,0.9
			c-0.5,0.5-0.8,0.9-1,1.5C0.2,3.3,0.1,3.9,0,4.7C0,5.5,0,5.8,0,8s0,2.4,0,3.3c0,0.8,0.2,1.4,0.4,1.9c0.2,0.5,0.5,1,0.9,1.4
			c0.4,0.4,0.9,0.7,1.4,0.9c0.5,0.2,1.1,0.3,1.9,0.4c0.8,0,1.1,0,3.3,0s2.4,0,3.3,0c0.8,0,1.4-0.2,1.9-0.4c0.5-0.2,1-0.5,1.4-0.9
			s0.7-0.9,0.9-1.4c0.2-0.5,0.3-1.1,0.4-1.9c0-0.8,0-1.1,0-3.3s0-2.4,0-3.3c0-0.8-0.2-1.4-0.4-1.9c-0.2-0.5-0.5-1-0.9-1.4
			c-0.4-0.4-0.9-0.7-1.4-0.9c-0.5-0.2-1.1-0.3-1.9-0.4C10.4,0,10.1,0,8,0L8,0z"/>
		<path class="st0" d="M8,3.9C5.7,3.9,3.9,5.7,3.9,8s1.8,4.1,4.1,4.1s4.1-1.8,4.1-4.1S10.2,3.9,8,3.9z M8,10.6
			c-1.5,0-2.6-1.2-2.6-2.6S6.6,5.4,8,5.4s2.6,1.2,2.6,2.6S9.4,10.6,8,10.6z"/>
		<circle class="st0" cx="12.2" cy="3.7" r="1"/>
</symbol><symbol id="svg-linkedin" viewBox="0 0 133 127.1">
	<path d="M30.2,127.1V41.3H1.7v85.8H30.2L30.2,127.1z M15.9,29.6c9.9,0,16.1-6.6,16.1-14.8
		C31.9,6.4,25.9,0,16.1,0C6.4,0,0,6.4,0,14.8C0,23,6.2,29.6,15.8,29.6H15.9L15.9,29.6z"/>
	<path d="M46,127.1h28.5V79.2c0-2.6,0.2-5.1,0.9-7c2.1-5.1,6.8-10.4,14.6-10.4
		c10.3,0,14.4,7.9,14.4,19.4v45.9H133V77.9c0-26.3-14.1-38.6-32.8-38.6c-15.4,0-22.1,8.6-25.9,14.5h0.2V41.3H46
	C46.3,49.4,46,127.1,46,127.1L46,127.1z"/>
</symbol><symbol id="svg-logo" viewBox="0 0 347.6 99.9">

<g>
	<path d="M26.1,0l-4,2.9v1.4h0v36.5l-8.9,0l0,0h0L9.4,29.1l-5-15.4L0,16.9l8.8,27.2l2.5,1.8h10.8v13h5.2v0h0v-13
		h10.9l2.4-1.7l8.9-27.3L26.1,0z M36.2,40.8h-8.9V7.2l16.1,11.7L36.2,40.8z"/>
</g>
<g>
	<path d="M96.7,8.9v36.5h-7.3V8.9H96.7z"/>
	<path d="M152.4,45.5h-7.3l-16.3-24.8v24.8h-7.3V8.9h7.3l16.3,25v-25h7.3V45.5z"/>
	<path d="M205.1,11.9c2.9,2.2,4.8,5.1,5.6,8.9h-7.7c-0.7-1.7-1.9-3-3.4-4s-3.4-1.5-5.6-1.5c-2.1,0-4,0.5-5.6,1.4
		c-1.6,1-2.9,2.3-3.8,4.1c-0.9,1.8-1.3,3.9-1.3,6.3c0,3.8,1,6.8,3.1,8.9c2.1,2.1,4.9,3.2,8.4,3.2c2.6,0,4.9-0.8,6.8-2.3
		c1.9-1.6,3.1-3.7,3.6-6.5h-12.4v-5.2h18.5v7c-0.5,2.4-1.5,4.6-3,6.7c-1.5,2-3.5,3.7-5.9,4.9c-2.4,1.2-5.2,1.8-8.4,1.8
		c-3.6,0-6.8-0.8-9.5-2.4c-2.7-1.6-4.9-3.8-6.4-6.6c-1.5-2.8-2.2-6-2.2-9.6c0-3.6,0.8-6.8,2.2-9.6c1.5-2.8,3.6-5,6.3-6.6
		c2.7-1.6,5.9-2.4,9.5-2.4C198.5,8.6,202.2,9.7,205.1,11.9z"/>
	<path d="M242.2,31.9v13.6H235V8.9h13.3c4.3,0,7.6,1,9.8,3.1c2.2,2.1,3.3,4.9,3.3,8.4c0,3.5-1.1,6.3-3.4,8.3
		c-2.3,2.1-5.5,3.1-9.6,3.1H242.2z M253.9,20.5c0-1.8-0.5-3.2-1.5-4.2c-1-1-2.6-1.4-4.9-1.4h-5.2v11.2h5.2
		C251.7,26.1,253.9,24.2,253.9,20.5z"/>
	<path d="M314.4,8.9v36.5h-7.3V29.6h-15.6v15.9h-7.3V8.9h7.3v14.8h15.6V8.9H314.4z"/>
	<path d="M346.4,8.9v36.5h-7.3V8.9H346.4z"/>
</g>
<g opacity="0.6">
	<path d="M99.9,68.2c1,0.8,1.7,1.8,2,3.2h-2.5c-0.3-0.7-0.7-1.2-1.2-1.5c-0.6-0.4-1.2-0.6-2-0.6
		c-0.6,0-1.2,0.2-1.7,0.5c-0.5,0.3-0.9,0.8-1.2,1.4c-0.3,0.6-0.4,1.3-0.4,2.1c0,0.8,0.1,1.5,0.4,2.1c0.3,0.6,0.7,1.1,1.2,1.4
		c0.5,0.3,1.1,0.5,1.7,0.5c0.8,0,1.4-0.2,2-0.6c0.6-0.4,1-0.9,1.2-1.5h2.5c-0.3,1.3-1,2.4-2,3.2c-1,0.8-2.2,1.2-3.8,1.2
		c-1.2,0-2.2-0.3-3.1-0.8s-1.6-1.2-2.1-2.2c-0.5-0.9-0.7-2-0.7-3.2c0-1.2,0.2-2.3,0.7-3.2c0.5-0.9,1.2-1.7,2-2.2
		c0.9-0.5,1.9-0.8,3.1-0.8C97.6,67,98.9,67.4,99.9,68.2z"/>
	<path d="M119.8,67.8c0.9,0.5,1.6,1.3,2.2,2.2c0.5,0.9,0.8,2,0.8,3.2s-0.3,2.3-0.8,3.2c-0.5,0.9-1.3,1.7-2.2,2.2
		c-0.9,0.5-1.9,0.8-3.1,0.8s-2.2-0.3-3.1-0.8c-0.9-0.5-1.6-1.3-2.2-2.2c-0.5-0.9-0.8-2-0.8-3.2s0.3-2.3,0.8-3.2
		c0.5-0.9,1.3-1.7,2.2-2.2c0.9-0.5,1.9-0.8,3.1-0.8S118.9,67.3,119.8,67.8z M114.9,69.7c-0.5,0.3-1,0.8-1.3,1.4s-0.5,1.3-0.5,2.1
		s0.2,1.5,0.5,2.1s0.7,1.1,1.3,1.4c0.5,0.3,1.2,0.5,1.9,0.5s1.3-0.2,1.9-0.5c0.5-0.3,1-0.8,1.3-1.4c0.3-0.6,0.5-1.3,0.5-2.1
		s-0.2-1.5-0.5-2.1c-0.3-0.6-0.7-1.1-1.3-1.4c-0.5-0.3-1.2-0.5-1.9-0.5S115.4,69.4,114.9,69.7z"/>
	<path d="M142.3,79.3h-2.4l-5.4-8.2v8.2H132V67.2h2.4l5.4,8.3v-8.3h2.4V79.3z"/>
	<path d="M161.1,68.2c1,0.8,1.7,1.8,2,3.2h-2.5c-0.3-0.7-0.7-1.2-1.2-1.5c-0.6-0.4-1.2-0.6-2-0.6
		c-0.6,0-1.2,0.2-1.7,0.5c-0.5,0.3-0.9,0.8-1.2,1.4c-0.3,0.6-0.4,1.3-0.4,2.1c0,0.8,0.1,1.5,0.4,2.1c0.3,0.6,0.7,1.1,1.2,1.4
		c0.5,0.3,1.1,0.5,1.7,0.5c0.8,0,1.4-0.2,2-0.6c0.6-0.4,1-0.9,1.2-1.5h2.5c-0.3,1.3-1,2.4-2,3.2c-1,0.8-2.2,1.2-3.8,1.2
		c-1.2,0-2.2-0.3-3.1-0.8s-1.6-1.2-2.1-2.2c-0.5-0.9-0.7-2-0.7-3.2c0-1.2,0.2-2.3,0.7-3.2c0.5-0.9,1.2-1.7,2-2.2
		c0.9-0.5,1.9-0.8,3.1-0.8C158.9,67,160.1,67.4,161.1,68.2z"/>
	<path d="M174.7,69.1v3.1h4.3v1.9h-4.3v3.3h4.8v1.9h-7.2V67.2h7.2v1.9H174.7z"/>
	<path d="M191.1,74.8v4.5h-2.4V67.2h4.4c1.4,0,2.5,0.3,3.2,1c0.7,0.7,1.1,1.6,1.1,2.8c0,1.2-0.4,2.1-1.1,2.8
		c-0.7,0.7-1.8,1-3.2,1H191.1z M195,71c0-0.6-0.2-1.1-0.5-1.4c-0.3-0.3-0.9-0.5-1.6-0.5h-1.7v3.7h1.7C194.3,72.8,195,72.2,195,71z"/>
	<path d="M214.7,67.2v1.9h-3.3v10.2h-2.4V69.1h-3.3v-1.9H214.7z"/>
	<path d="M225.8,69.1v3.1h4.3v1.9h-4.3v3.3h4.8v1.9h-7.2V67.2h7.2v1.9H225.8z"/>
	<path d="M242.2,67.2v7.1c0,0.9,0.2,1.7,0.6,2.1c0.4,0.5,1,0.7,1.8,0.7c0.8,0,1.4-0.2,1.8-0.7
		c0.4-0.5,0.6-1.2,0.6-2.1v-7.1h2.4v7.1c0,1.1-0.2,2.1-0.6,2.8c-0.4,0.8-1,1.3-1.7,1.7s-1.6,0.6-2.5,0.6c-1.5,0-2.6-0.4-3.5-1.3
		s-1.3-2.1-1.3-3.8v-7.1H242.2z"/>
	<path d="M265.3,79.3l-2.8-4.7h-1.1v4.7h-2.4V67.2h4.6c1.4,0,2.5,0.3,3.2,1s1.1,1.6,1.1,2.7c0,0.9-0.3,1.7-0.8,2.3
		s-1.2,1-2.2,1.2l3,4.8H265.3z M261.4,72.9h2c1.4,0,2.1-0.6,2.1-1.8c0-0.6-0.2-1-0.5-1.4s-0.9-0.5-1.6-0.5h-2V72.9z"/>
	<path d="M284.8,77.7c-0.3,0.5-0.8,0.9-1.4,1.3c-0.6,0.3-1.3,0.5-2.2,0.5c-0.9,0-1.6-0.1-2.3-0.4s-1.2-0.7-1.6-1.3
		c-0.4-0.5-0.6-1.2-0.7-1.9h2.6c0.1,0.5,0.3,0.9,0.6,1.2c0.3,0.3,0.8,0.5,1.3,0.5c0.5,0,0.9-0.1,1.2-0.4c0.3-0.3,0.4-0.6,0.4-1
		c0-0.4-0.1-0.7-0.3-0.9c-0.2-0.2-0.5-0.4-0.8-0.6c-0.3-0.1-0.8-0.3-1.4-0.5c-0.8-0.3-1.4-0.5-1.9-0.7c-0.5-0.2-0.9-0.6-1.2-1.1
		c-0.3-0.5-0.5-1.1-0.5-1.8c0-1,0.4-1.9,1.1-2.5c0.7-0.6,1.7-0.9,3-0.9c1.3,0,2.3,0.3,3.1,0.9c0.8,0.6,1.2,1.4,1.3,2.5h-2.6
		c-0.1-0.4-0.3-0.8-0.5-1.1c-0.3-0.3-0.7-0.4-1.2-0.4c-0.4,0-0.8,0.1-1.1,0.4s-0.4,0.6-0.4,1c0,0.4,0.1,0.6,0.3,0.9
		c0.2,0.2,0.5,0.4,0.8,0.6c0.3,0.1,0.8,0.3,1.3,0.5c0.8,0.3,1.4,0.5,1.9,0.8c0.5,0.2,0.9,0.6,1.2,1.1c0.3,0.5,0.5,1.1,0.5,1.9
		C285.2,76.6,285.1,77.1,284.8,77.7z"/>
</g>
<g opacity="0.6">
	<path d="M99.8,96.9c-0.5,0.9-1.2,1.6-2.2,2.1c-1,0.5-2.1,0.8-3.4,0.8h-4.3V87.7h4.3c1.3,0,2.4,0.2,3.4,0.7
		c1,0.5,1.7,1.2,2.2,2.1c0.5,0.9,0.8,2,0.8,3.2C100.6,94.9,100.3,96,99.8,96.9z M97.1,96.6c0.7-0.7,1.1-1.6,1.1-2.9
		c0-1.2-0.4-2.2-1.1-2.9c-0.7-0.7-1.7-1-3-1h-1.7v7.8H94C95.3,97.6,96.3,97.3,97.1,96.6z"/>
	<path d="M106.7,86.1l-0.2,3.7h-1.6l-0.2-3.7H106.7z"/>
	<path d="M123.8,88.3c0.9,0.5,1.6,1.3,2.2,2.2c0.5,0.9,0.8,2,0.8,3.2s-0.3,2.3-0.8,3.2c-0.5,0.9-1.3,1.7-2.2,2.2
		c-0.9,0.5-1.9,0.8-3.1,0.8s-2.2-0.3-3.1-0.8c-0.9-0.5-1.6-1.3-2.2-2.2c-0.5-0.9-0.8-2-0.8-3.2s0.3-2.3,0.8-3.2
		c0.5-0.9,1.3-1.7,2.2-2.2c0.9-0.5,1.9-0.8,3.1-0.8S122.9,87.8,123.8,88.3z M118.8,90.2c-0.5,0.3-1,0.8-1.3,1.4s-0.5,1.3-0.5,2.1
		s0.2,1.5,0.5,2.1s0.7,1.1,1.3,1.4c0.5,0.3,1.2,0.5,1.9,0.5s1.3-0.2,1.9-0.5c0.5-0.3,1-0.8,1.3-1.4c0.3-0.6,0.5-1.3,0.5-2.1
		s-0.2-1.5-0.5-2.1c-0.3-0.6-0.7-1.1-1.3-1.4c-0.5-0.3-1.2-0.5-1.9-0.5S119.4,89.9,118.8,90.2z"/>
	<path d="M138.3,87.7v7.1c0,0.9,0.2,1.7,0.6,2.1c0.4,0.5,1,0.7,1.8,0.7c0.8,0,1.4-0.2,1.8-0.7
		c0.4-0.5,0.6-1.2,0.6-2.1v-7.1h2.4v7.1c0,1.1-0.2,2.1-0.6,2.8c-0.4,0.8-1,1.3-1.7,1.7s-1.6,0.6-2.5,0.6c-1.5,0-2.6-0.4-3.5-1.3
		s-1.3-2.1-1.3-3.8v-7.1H138.3z"/>
	<path d="M156.8,87.7l3.2,9.6l3.3-9.6h2.6l-4.3,12.1h-3.1l-4.3-12.1H156.8z"/>
	<path d="M180.9,99.8l-2.8-4.7H177v4.7h-2.4V87.7h4.6c1.4,0,2.5,0.3,3.2,1s1.1,1.6,1.1,2.7c0,0.9-0.3,1.7-0.8,2.3
		s-1.2,1-2.2,1.2l3,4.8H180.9z M177,93.4h2c1.4,0,2.1-0.6,2.1-1.8c0-0.6-0.2-1-0.5-1.4s-0.9-0.5-1.6-0.5h-2V93.4z"/>
	<path d="M200,97.4h-4.9l-0.9,2.4h-2.6l4.5-12h2.8l4.4,12h-2.6L200,97.4z M199.3,95.5l-1.8-5.1l-1.8,5.1H199.3z"/>
	<path d="M221.3,88.7c1,0.7,1.6,1.7,1.9,2.9h-2.5c-0.2-0.5-0.6-1-1.1-1.3c-0.5-0.3-1.1-0.5-1.8-0.5
		c-0.7,0-1.3,0.2-1.9,0.5c-0.5,0.3-1,0.8-1.3,1.4c-0.3,0.6-0.4,1.3-0.4,2.1c0,1.3,0.3,2.3,1,3c0.7,0.7,1.6,1.1,2.8,1.1
		c0.9,0,1.6-0.3,2.2-0.8c0.6-0.5,1-1.2,1.2-2.1h-4.1v-1.7h6.1v2.3c-0.2,0.8-0.5,1.5-1,2.2c-0.5,0.7-1.1,1.2-2,1.6s-1.7,0.6-2.8,0.6
		c-1.2,0-2.2-0.3-3.1-0.8c-0.9-0.5-1.6-1.2-2.1-2.2c-0.5-0.9-0.7-2-0.7-3.2s0.2-2.3,0.7-3.2c0.5-0.9,1.2-1.7,2.1-2.2
		s1.9-0.8,3.1-0.8C219.1,87.6,220.4,87.9,221.3,88.7z"/>
	<path d="M235.1,89.6v3.1h4.3v1.9h-4.3v3.3h4.8v1.9h-7.2V87.7h7.2v1.9H235.1z"/>
	<path d="M256.9,98.2c-0.3,0.5-0.8,0.9-1.4,1.3c-0.6,0.3-1.3,0.5-2.2,0.5c-0.9,0-1.6-0.1-2.3-0.4s-1.2-0.7-1.6-1.3
		c-0.4-0.5-0.6-1.2-0.7-1.9h2.6c0.1,0.5,0.3,0.9,0.6,1.2c0.3,0.3,0.8,0.5,1.3,0.5c0.5,0,0.9-0.1,1.2-0.4c0.3-0.3,0.4-0.6,0.4-1
		c0-0.4-0.1-0.7-0.3-0.9c-0.2-0.2-0.5-0.4-0.8-0.6c-0.3-0.1-0.8-0.3-1.4-0.5c-0.8-0.3-1.4-0.5-1.9-0.7c-0.5-0.2-0.9-0.6-1.2-1.1
		c-0.3-0.5-0.5-1.1-0.5-1.8c0-1,0.4-1.9,1.1-2.5c0.7-0.6,1.7-0.9,3-0.9c1.3,0,2.3,0.3,3.1,0.9c0.8,0.6,1.2,1.4,1.3,2.5h-2.6
		c-0.1-0.4-0.3-0.8-0.5-1.1c-0.3-0.3-0.7-0.4-1.2-0.4c-0.4,0-0.8,0.1-1.1,0.4s-0.4,0.6-0.4,1c0,0.4,0.1,0.6,0.3,0.9
		c0.2,0.2,0.5,0.4,0.8,0.6c0.3,0.1,0.8,0.3,1.3,0.5c0.8,0.3,1.4,0.5,1.9,0.8c0.5,0.2,0.9,0.6,1.2,1.1c0.3,0.5,0.5,1.1,0.5,1.9
		C257.4,97.1,257.2,97.7,256.9,98.2z"/>
	<path d="M286.7,96.9c-0.5,0.9-1.2,1.6-2.2,2.1c-1,0.5-2.1,0.8-3.4,0.8h-4.3V87.7h4.3c1.3,0,2.4,0.2,3.4,0.7
		c1,0.5,1.7,1.2,2.2,2.1c0.5,0.9,0.8,2,0.8,3.2C287.5,94.9,287.2,96,286.7,96.9z M283.9,96.6c0.7-0.7,1.1-1.6,1.1-2.9
		c0-1.2-0.4-2.2-1.1-2.9c-0.7-0.7-1.7-1-3-1h-1.7v7.8h1.7C282.2,97.6,283.2,97.3,283.9,96.6z"/>
	<path d="M293.6,86.1l-0.2,3.7h-1.6l-0.2-3.7H293.6z"/>
	<path d="M309.3,97.4h-4.9l-0.9,2.4H301l4.5-12h2.8l4.4,12h-2.6L309.3,97.4z M308.6,95.5l-1.8-5.1l-1.8,5.1H308.6z"/>
	<path d="M327.7,99.8l-2.8-4.7h-1.1v4.7h-2.4V87.7h4.6c1.4,0,2.5,0.3,3.2,1s1.1,1.6,1.1,2.7c0,0.9-0.3,1.7-0.8,2.3
		s-1.2,1-2.2,1.2l3,4.8H327.7z M323.8,93.4h2c1.4,0,2.1-0.6,2.1-1.8c0-0.6-0.2-1-0.5-1.4s-0.9-0.5-1.6-0.5h-2V93.4z"/>
	<path d="M347.6,87.7v1.9h-3.3v10.2h-2.4V89.6h-3.3v-1.9H347.6z"/>
</g>
</symbol><symbol id="svg-loupe" viewBox="0 0 12.3 12.4">
	<path d="M12.3,11.7L9.5,9c0.8-1,1.3-2.2,1.3-3.6c0-3-2.4-5.4-5.4-5.4C2.4,0,0,2.4,0,5.4c0,3,2.4,5.4,5.4,5.4
	c1.3,0,2.4-0.4,3.4-1.2l2.8,2.8L12.3,11.7z M1,5.4C1,3,3,1,5.4,1c2.4,0,4.4,2,4.4,4.4c0,2.4-2,4.4-4.4,4.4C3,9.8,1,7.9,1,5.4z"/>
</symbol><symbol id="svg-marker" viewBox="0 0 55 80">
	<path d="M52.7,38.9h-0.2c1.6-3.5,2.5-7.3,2.5-11.4C55,12.3,42.7,0,27.5,0C12.3,0,0,12.3,0,27.4
	c0,0.6,0,1.1,0.1,1.7c0.2,3.5,1.1,6.7,2.4,9.7H2.3L3.6,41c0.3,0.5,0.6,1,0.9,1.5L27.5,80l23.1-37.6c0.3-0.4,0.5-0.9,0.8-1.3
	L52.7,38.9z"/>
	<path fill="#FFFFFF" d="M28.2,10.9l-2,1.5V13h0v18.2l-4.5,0l0,0h0l-1.9-5.8l-2.5-7.7l-2.2,1.6l4.4,13.6l1.2,0.9h5.4v6.5h2.6v0h0
	v-6.5h5.4l1.2-0.9l4.4-13.7L28.2,10.9z M33.3,31.3h-4.5V14.5l8,5.8L33.3,31.3z"/>
</symbol><symbol id="svg-share">
	<path d="M15.1,16.2c-0.7,0-1.4,0.3-1.9,0.8l-7.6-5c0.1-0.3,0.2-0.7,0.2-1.1c0-0.4-0.1-0.8-0.2-1.1L13,4.9c0.5,0.5,1.3,0.9,2.1,0.9
	c1.6,0,2.9-1.3,2.9-2.9S16.7,0,15.1,0s-2.9,1.3-2.9,2.9c0,0.4,0.1,0.8,0.2,1.1L4.9,8.9C4.4,8.4,3.7,8,2.9,8C1.3,8,0,9.3,0,10.9
	s1.3,2.9,2.9,2.9c0.9,0,1.6-0.4,2.1-1l7.5,4.9c-0.2,0.4-0.3,0.8-0.3,1.3c0,1.6,1.3,2.9,2.9,2.9s2.9-1.3,2.9-2.9S16.7,16.2,15.1,16.2
	z M15.1,1c1,0,1.9,0.8,1.9,1.9s-0.8,1.9-1.9,1.9s-1.9-0.8-1.9-1.9S14,1,15.1,1z M2.9,12.8c-1,0-1.9-0.8-1.9-1.9S1.8,9,2.9,9
	s1.9,0.8,1.9,1.9S3.9,12.8,2.9,12.8z M15.1,21c-1,0-1.9-0.8-1.9-1.9s0.8-1.9,1.9-1.9S17,18,17,19.1S16.1,21,15.1,21z"/>
</symbol></svg>