<!-- Generator: Adobe Illustrator 21.1.0, SVG Export Plug-In  -->
<svg version="1.2" baseProfile="tiny"
	 xmlns="http://www.w3.org/2000/svg" xmlns:xlink="http://www.w3.org/1999/xlink" xmlns:a="http://ns.adobe.com/AdobeSVGViewerExtensions/3.0/"
	 x="0px" y="0px" width="1007.8px" height="758.4px" viewBox="0 0 1007.8 758.4" xml:space="preserve">
<defs>
</defs>
<path fill="none" stroke="#000000" stroke-miterlimit="10" d="M1007.5,79.9c0,0-132.8,102.4-173.4,132.8"/>
<path fill="none" stroke="#000000" stroke-miterlimit="10" d="M732.7,287.8c0,0-66.9,51.7-80.1,57.8"/>
<path fill="none" stroke="#000000" stroke-miterlimit="10" d="M570.3,397.9c0,0-92.7,61.6-139.7,78.8"/>
<path fill="none" stroke="#000000" stroke-miterlimit="10" d="M400.2,493.2c0,0-22.5,12.6-33.8,15.9"/>
<path fill="none" stroke="#000000" stroke-miterlimit="10" d="M338.6,520.4c0,0-40.4,17.2-55.6,19.9"/>
<path fill="none" stroke="#000000" stroke-miterlimit="10" d="M263.1,546.8c0,0-14.6,5.3-20.5,6.6"/>
<path fill="none" stroke="#000000" stroke-miterlimit="10" d="M224.7,558.8c0,0-46.3,15.2-53,15.9"/>
<path fill="none" stroke="#000000" stroke-miterlimit="10" d="M157.5,577.9c-1.3,0.3-6.1,2.3-15.5,3.6"/>
<path fill="none" stroke="#000000" stroke-miterlimit="10" d="M558.4,72.5l76.1,2.3L676,747.9c0,0-26.1,0.8-26.9,3.8
	c-0.8,3.1-2.3,5.4-2.3,5.4h-13.1l-13.8,0.8l-3.1-5.4L558.4,72.5z"/>
<polyline fill="none" stroke="#000000" stroke-miterlimit="10" points="558.4,72.5 545.3,99.4 599.9,747.1 "/>
<path fill="none" stroke="#000000" stroke-miterlimit="10" d="M556.9,241.5c0,0,10.8-19.2,13.1-18.4s73,1.5,73,1.5"/>
<polyline fill="none" stroke="#000000" stroke-miterlimit="10" points="570.3,397.9 584.5,388.3 652.9,388.3 "/>
<polyline fill="none" stroke="#000000" stroke-miterlimit="10" points="585.3,553.5 596.8,552.7 660.6,552 "/>
<polyline fill="none" stroke="#000000" stroke-miterlimit="10" points="596,711 613,716.4 672.1,714.9 "/>
<polyline fill="none" stroke="#000000" stroke-miterlimit="10" points="735.9,238.5 748.2,228.5 829.6,225.4 "/>
<polyline fill="none" stroke="#000000" stroke-miterlimit="10" points="728.2,396.7 741.3,390.6 817.3,389.1 "/>
<polyline fill="none" stroke="#000000" stroke-miterlimit="10" points="720.5,554.3 732.1,552.7 803.5,553.5 "/>
<polyline fill="none" stroke="#000000" stroke-miterlimit="10" points="711.3,711.8 725.1,716.4 792,718.7 "/>
<polygon fill="none" stroke="#000000" stroke-miterlimit="10" points="744.9,85.2 755.9,70.2 724.9,753.2 708.9,748.2 "/>
<path fill="none" stroke="#000000" stroke-miterlimit="10" d="M755.9,70.2l85-9l-50,686c0,0-19-3-22,0s-10,3-10,3s-2-2-8-2
	s-15,3-15,3l-7,2"/>
<path fill="none" stroke="#000000" stroke-miterlimit="10" d="M233.9,1.2c0,0,55,307-20,460c0,0-33,89-195,125"/>
<path fill="none" stroke="#000000" stroke-miterlimit="10" d="M28.4,612.6c0,0,35.4,13.5,90.5,0"/>
<polygon fill="none" stroke="#000000" stroke-miterlimit="10" points="138,643.9 146.2,643.6 141.8,577.2 128.9,576.5 "/>
<polygon fill="none" stroke="#000000" stroke-miterlimit="10" points="158.4,576.2 170.9,576.2 163.7,643.6 153.4,643.9 "/>
<polygon fill="none" stroke="#000000" stroke-miterlimit="10" points="240.7,539.9 225.4,539.9 237.3,648.9 248.6,648.6 "/>
<polygon fill="none" stroke="#000000" stroke-miterlimit="10" points="265.4,538 282.7,537.6 272.2,648.3 259,648.1 "/>
<polyline fill="none" stroke="#000000" stroke-miterlimit="10" points="259,648.1 257.5,647.5 263.6,539.3 265.4,538 "/>
<polygon fill="none" stroke="#000000" stroke-miterlimit="10" points="337.7,455.2 363.4,455 376.1,665.6 356.3,665.1 "/>
<path fill="none" stroke="#000000" stroke-miterlimit="10" d="M338.6,509.6c0.7-0.3,3-2.8,3-2.8l24.6,0.2"/>
<path fill="none" stroke="#000000" stroke-miterlimit="10" d="M343.8,565c0.5-0.3,3.6-1.8,3.6-1.8l22.4-0.2"/>
<path fill="none" stroke="#000000" stroke-miterlimit="10" d="M349.2,618.6c0.7,0,3.1-0.2,3.1-0.2h20.6"/>
<polygon fill="none" stroke="#000000" stroke-miterlimit="10" points="431.5,452.5 402.5,453.7 392.2,664.6 412.9,665 "/>
<path fill="none" stroke="#000000" stroke-miterlimit="10" d="M400.5,507.9c1.8,0,25.9,0,25.9,0"/>
<path fill="none" stroke="#000000" stroke-miterlimit="10" d="M421.1,563.9c-1.2,0.2-23.9,0-23.9,0"/>
<line fill="none" stroke="#000000" stroke-miterlimit="10" x1="392.7" y1="618.6" x2="416.7" y2="618.6"/>
<path fill="none" stroke="#000000" stroke-miterlimit="10" d="M509.9,1.2c0,0-103.2,537.7-457.1,583.9l5.2,9.4l11.3-0.3
	c13.6,0.3,59.1-9.4,59.1-9.4L122,611c0,0,10.6,26.6,11.3,27.9c0.6,1.3-84.9,2.2-84.9,2.2l-25.3-30.8L0.9,583.2c0,0,175-35,214-149
	c0,0,58-104,15-434"/>
<path fill="none" stroke="#000000" stroke-miterlimit="10" d="M585.9,0.2c0,0-119.5,326-248.3,455l-3.6,3l19,207h3.3"/>
<path fill="none" stroke="#000000" stroke-miterlimit="10" d="M334,458.1c0,0-35.7,41.2-108.6,81.8l-2.2,1.2l11.5,107.5l2.6,0.2"/>
<path fill="none" stroke="#000000" stroke-miterlimit="10" d="M58,594.4c0,0,101-22.8,165.2-53.3"/>
<path fill="none" stroke="#000000" stroke-miterlimit="10" d="M554.4,206.8c0,0-84.1,144.2-191,248.2"/>
<path fill="none" stroke="#000000" stroke-miterlimit="10" d="M561.8,300.6c0,0-76.3,86.8-159.3,153.1"/>
<path fill="none" stroke="#000000" stroke-miterlimit="10" d="M158.4,576.2c0,0,56.7-16.4,65.7-21.9"/>
<path fill="none" stroke="#000000" stroke-miterlimit="10" d="M241.6,547.7c0,0,71.5-28.9,95-48.1"/>
<path fill="none" stroke="#000000" stroke-miterlimit="10" d="M365.2,480.4c0,0,30.7-18.8,35.7-25.4l-10.9,208.8l2.3,0.8"/>
<path fill="none" stroke="#000000" stroke-miterlimit="10" d="M232.5,375.4c0,0-15.5,145.9-232.2,197.9"/>
</svg>
