<svg x="0px" y="0px" width="15.8px" height="15.9px" viewBox="0 0 15.8 15.9">
	 <path class="st0" d="M8,1.5c2.1,0,2.4,0,3.2,0s1.2,0.2,1.5,0.3c0.4,0.1,0.6,0.3,0.9,0.6s0.5,0.5,0.6,0.9c0.1,0.3,0.2,0.7,0.3,1.5
			c0,0.8,0,1.1,0,3.2s0,2.4,0,3.2s-0.2,1.2-0.3,1.5c-0.1,0.4-0.3,0.6-0.6,0.9c-0.3,0.3-0.5,0.5-0.9,0.6c-0.3,0.1-0.7,0.2-1.5,0.3
			c-0.8,0-1.1,0-3.2,0s-2.4,0-3.2,0c-0.8,0-1.2-0.2-1.5-0.3c-0.4-0.1-0.6-0.3-0.9-0.6c-0.3-0.3-0.5-0.5-0.6-0.9
			c-0.1-0.3-0.2-0.7-0.3-1.5c0-0.8,0-1.1,0-3.2s0-2.4,0-3.2c0-0.8,0.2-1.2,0.3-1.5c0.1-0.4,0.3-0.6,0.6-0.9c0.2-0.3,0.5-0.5,0.9-0.6
			C3.6,1.7,4,1.6,4.8,1.5C5.6,1.5,5.8,1.5,8,1.5 M8,0C5.8,0,5.6,0,4.7,0C3.9,0,3.3,0.2,2.8,0.4c-0.5,0.2-1,0.5-1.4,0.9
			c-0.5,0.5-0.8,0.9-1,1.5C0.2,3.3,0.1,3.9,0,4.7C0,5.5,0,5.8,0,8s0,2.4,0,3.3c0,0.8,0.2,1.4,0.4,1.9c0.2,0.5,0.5,1,0.9,1.4
			c0.4,0.4,0.9,0.7,1.4,0.9c0.5,0.2,1.1,0.3,1.9,0.4c0.8,0,1.1,0,3.3,0s2.4,0,3.3,0c0.8,0,1.4-0.2,1.9-0.4c0.5-0.2,1-0.5,1.4-0.9
			s0.7-0.9,0.9-1.4c0.2-0.5,0.3-1.1,0.4-1.9c0-0.8,0-1.1,0-3.3s0-2.4,0-3.3c0-0.8-0.2-1.4-0.4-1.9c-0.2-0.5-0.5-1-0.9-1.4
			c-0.4-0.4-0.9-0.7-1.4-0.9c-0.5-0.2-1.1-0.3-1.9-0.4C10.4,0,10.1,0,8,0L8,0z"/>
		<path class="st0" d="M8,3.9C5.7,3.9,3.9,5.7,3.9,8s1.8,4.1,4.1,4.1s4.1-1.8,4.1-4.1S10.2,3.9,8,3.9z M8,10.6
			c-1.5,0-2.6-1.2-2.6-2.6S6.6,5.4,8,5.4s2.6,1.2,2.6,2.6S9.4,10.6,8,10.6z"/>
		<circle class="st0" cx="12.2" cy="3.7" r="1"/>
</svg>
