<!-- Generator: Adobe Illustrator 21.1.0, SVG Export Plug-In  -->
<svg version="1.2" baseProfile="tiny"
	 xmlns="http://www.w3.org/2000/svg" xmlns:xlink="http://www.w3.org/1999/xlink" xmlns:a="http://ns.adobe.com/AdobeSVGViewerExtensions/3.0/"
	 x="0px" y="0px" width="133px" height="127.1px" viewBox="0 0 133 127.1">
	<path d="M30.2,127.1V41.3H1.7v85.8H30.2L30.2,127.1z M15.9,29.6c9.9,0,16.1-6.6,16.1-14.8
		C31.9,6.4,25.9,0,16.1,0C6.4,0,0,6.4,0,14.8C0,23,6.2,29.6,15.8,29.6H15.9L15.9,29.6z"/>
	<path d="M46,127.1h28.5V79.2c0-2.6,0.2-5.1,0.9-7c2.1-5.1,6.8-10.4,14.6-10.4
		c10.3,0,14.4,7.9,14.4,19.4v45.9H133V77.9c0-26.3-14.1-38.6-32.8-38.6c-15.4,0-22.1,8.6-25.9,14.5h0.2V41.3H46
	C46.3,49.4,46,127.1,46,127.1L46,127.1z"/>
</svg>
