<!-- Generator: Adobe Illustrator 21.1.0, SVG Export Plug-In  -->
<svg version="1.2" baseProfile="tiny"
	 xmlns="http://www.w3.org/2000/svg" xmlns:xlink="http://www.w3.org/1999/xlink" xmlns:a="http://ns.adobe.com/AdobeSVGViewerExtensions/3.0/"
	 x="0px" y="0px" width="12.3px" height="12.4px" viewBox="0 0 12.3 12.4">
	<path d="M12.3,11.7L9.5,9c0.8-1,1.3-2.2,1.3-3.6c0-3-2.4-5.4-5.4-5.4C2.4,0,0,2.4,0,5.4c0,3,2.4,5.4,5.4,5.4
	c1.3,0,2.4-0.4,3.4-1.2l2.8,2.8L12.3,11.7z M1,5.4C1,3,3,1,5.4,1c2.4,0,4.4,2,4.4,4.4c0,2.4-2,4.4-4.4,4.4C3,9.8,1,7.9,1,5.4z"/>
</svg>
