<!-- Generator: Adobe Illustrator 21.1.0, SVG Export Plug-In  -->
<svg version="1.2" baseProfile="tiny"
	 xmlns="http://www.w3.org/2000/svg" xmlns:xlink="http://www.w3.org/1999/xlink" xmlns:a="http://ns.adobe.com/AdobeSVGViewerExtensions/3.0/"
	 x="0px" y="0px" width="55px" height="80px" viewBox="0 0 55 80">
	<path d="M52.7,38.9h-0.2c1.6-3.5,2.5-7.3,2.5-11.4C55,12.3,42.7,0,27.5,0C12.3,0,0,12.3,0,27.4
	c0,0.6,0,1.1,0.1,1.7c0.2,3.5,1.1,6.7,2.4,9.7H2.3L3.6,41c0.3,0.5,0.6,1,0.9,1.5L27.5,80l23.1-37.6c0.3-0.4,0.5-0.9,0.8-1.3
	L52.7,38.9z"/>
	<path fill="#FFFFFF" d="M28.2,10.9l-2,1.5V13h0v18.2l-4.5,0l0,0h0l-1.9-5.8l-2.5-7.7l-2.2,1.6l4.4,13.6l1.2,0.9h5.4v6.5h2.6v0h0
	v-6.5h5.4l1.2-0.9l4.4-13.7L28.2,10.9z M33.3,31.3h-4.5V14.5l8,5.8L33.3,31.3z"/>
</svg>
