<!-- Generator: Adobe Illustrator 21.1.0, SVG Export Plug-In  -->
<svg version="1.2" baseProfile="tiny"
	 xmlns="http://www.w3.org/2000/svg" xmlns:xlink="http://www.w3.org/1999/xlink" xmlns:a="http://ns.adobe.com/AdobeSVGViewerExtensions/3.0/"
	 x="0px" y="0px" width="18px" height="22px">
	<path d="M15.1,16.2c-0.7,0-1.4,0.3-1.9,0.8l-7.6-5c0.1-0.3,0.2-0.7,0.2-1.1c0-0.4-0.1-0.8-0.2-1.1L13,4.9c0.5,0.5,1.3,0.9,2.1,0.9
	c1.6,0,2.9-1.3,2.9-2.9S16.7,0,15.1,0s-2.9,1.3-2.9,2.9c0,0.4,0.1,0.8,0.2,1.1L4.9,8.9C4.4,8.4,3.7,8,2.9,8C1.3,8,0,9.3,0,10.9
	s1.3,2.9,2.9,2.9c0.9,0,1.6-0.4,2.1-1l7.5,4.9c-0.2,0.4-0.3,0.8-0.3,1.3c0,1.6,1.3,2.9,2.9,2.9s2.9-1.3,2.9-2.9S16.7,16.2,15.1,16.2
	z M15.1,1c1,0,1.9,0.8,1.9,1.9s-0.8,1.9-1.9,1.9s-1.9-0.8-1.9-1.9S14,1,15.1,1z M2.9,12.8c-1,0-1.9-0.8-1.9-1.9S1.8,9,2.9,9
	s1.9,0.8,1.9,1.9S3.9,12.8,2.9,12.8z M15.1,21c-1,0-1.9-0.8-1.9-1.9s0.8-1.9,1.9-1.9S17,18,17,19.1S16.1,21,15.1,21z"/>
</svg>
