<?xml version="1.0" encoding="utf-8"?>
<!-- Generator: Adobe Illustrator 21.0.0, SVG Export Plug-In . SVG Version: 6.00 Build 0)  -->
<svg version="1.1" id="Layer_1" xmlns="http://www.w3.org/2000/svg" xmlns:xlink="http://www.w3.org/1999/xlink" x="0px" y="0px"
	 viewBox="0 0 108.5 105.1" style="enable-background:new 0 0 108.5 105.1;" xml:space="preserve">
<style type="text/css">
	.st0{fill:#FFFFFF;}
	.st1{enable-background:new    ;}
</style>
<path class="st0" d="M83.2,69.4c-2.6,0.8-7,1.8-8,1.8c-0.6,0-0.7-0.3-0.7-3.1v-3.2l2.5,1.7c2.3,1.5,3.3,1.8,3.3,0.9
	c0-0.2-3.8-2.7-5.8-3.8c-0.2-0.1-0.3-2-0.1-2.7c0.2-0.8,0.3-0.8,2.6,0.8c2.2,1.5,3.3,1.8,3.3,1c0-0.2-1.3-1.2-2.9-2.2
	c-2.7-1.7-2.9-1.9-3-3.3c-0.1-0.8,0-1.6,0.1-1.6c0.1-0.1,1.4,0.5,2.6,1.3c2.1,1.4,3.2,1.6,3.2,0.8c0-0.1-1.3-1.1-2.9-2.1
	c-1.6-1-2.9-2-3-2.2c-0.1-2-0.1-3.1,0-3.1c0.1,0,1.2,0.7,2.6,1.6c1.8,1.1,2.6,1.5,3,1.3c0.6-0.4,0-1-3.3-3c-2-1.2-2.2-1.5-2.3-2.6
	c0-1.4-0.2-2.5-0.4-2.7s-5.8,3.1-5.8,3.4c0,0.1,0.5,0.7,1.2,1.2c0.6,0.5,1.1,1.1,0.9,1.2c-0.1,0.1-3.2-1.6-6.7-3.8
	c-3.3-2.2-6.4-4.1-6.7-4.1c-0.3,0-2.3,1.2-4.6,2.6c-3.9,2.3-4.8,2.8-4.3,1.9c0.1-0.2,2.2-1.5,4.6-3l4.4-2.7l0.1-2.3l0.1-2.3l5.1,3.3
	c2.8,1.8,5.4,3.7,5.6,4.2c0.4,0.9,0.5,0.9,1.5,0.3c0.6-0.3,1.1-0.8,1.1-1c0-0.4-13-8.6-13.7-8.6c-0.3,0-2.3,1.1-4.7,2.6
	c-2.3,1.4-4.3,2.5-4.3,2.4c-0.3-0.3,0.5-1,4.7-3.5l4.4-2.6l0.1-2.3l0.1-2.3l5.4,3.5c4,2.6,5.4,3.7,5.4,4.2c0,0.4,0.1,0.7,0.3,0.6
	c1.8-0.9,2.3-1.2,2.2-1.5c-0.1-0.5-12.7-8.6-13.4-8.6c-0.3,0-2.3,1.1-4.6,2.4c-2.2,1.3-4.2,2.5-4.3,2.6c-0.2,0.1-0.3,0-0.3-0.2
	s2.1-1.6,4.6-3.2l4.6-2.8V24v-2.5l-0.8,0.2c-0.5,0.3-3.4,2.2-6.4,4.1l-5.6,3.7v15.4v15.4L43.1,59c-1.7-2.2-3.9-5.6-5.1-10.2
	c-1-3.7-1-6.6-0.9-7.6c0.1-2.3,0.4-4.3,0.8-5.7c0,0,0.3-1.4,0.7-2.9c1.2-3.9,3.3-8.2,5.6-11.6c2.4-3.4,7.4-8.3,11.2-10.8
	c4.2-2.5,4.2-2.7,0.6-1.1c-10.3,4.4-19.7,14.2-23.2,24.2c-1.9,5.6-2.3,12.9-1,18.2c1.4,5.4,3.9,9,4.5,9.8c2.4,3.3,4.9,5.1,6.6,6.4
	c1.9,1.4,5.9,4,11.5,5.6c0.7,0.2,2.9,0.8,5.9,1.1c9.3,1,16.4-1.5,19.2-2.6c3.4-1.4,6.1-2.6,6.1-2.9C85.5,68.9,84.5,69,83.2,69.4z
	 M68,71.6l-11-2.2v-17l11,7.1V71.6z M70.5,58.6c-0.1,0.1-3.2-1.8-6.9-4.1l-6.7-4.2l-1.3,0.8c-0.7,0.4-2.6,1.6-4.1,2.5
	c-1.5,1-3,1.8-3.2,2c-0.3,0.1-0.5,0.1-0.5-0.2c0-0.3,2.1-1.7,4.6-3.2l4.6-2.7v-2.3v-2.3l4.7,3c2.6,1.5,5.1,3.1,5.5,3.4
	c0.7,0.4,0.8,0.8,0.8,2.7c0,2,0.1,2.2,1.1,2.7C70.1,57.3,70.8,58.2,70.5,58.6z"/>
<path class="st0" d="M80,72.7c-12,5.2-24,5.2-34.4,0c-1.1-0.5-6.6-3.4-10.9-8.8c-2-2.5-3.2-4.7-3.4-5.2c-0.4-0.7-1.5-3-2.2-6.2
	c-0.8-3.4-0.9-6.1-0.9-7.7c0-3.5,0.5-6,0.6-6.5c0,0,0.3-1.4,0.7-2.8c2.2-7.4,7.2-14.7,13.4-19.8c1.8-1.5,1.5-1.8-0.7-0.4
	c-13.2,8.5-17,22.8-17,22.8c-1.8,7.2-0.9,13.1-0.5,15.2c0.4,1.8,1,5.2,3.2,9.1c2,3.6,4.3,5.9,5.5,7.1c4.3,4.2,9.1,6.9,15.6,8.7
	c0.4,0.1,1.3,0.3,2.3,0.5c1.6,0.3,4.5,0.8,8.2,0.7c1.3,0,4.1-0.2,7.7-0.9c0.9-0.2,3.6-0.9,7.1-2.2c2.6-1,9.3-4.7,9.1-5
	C83.3,71.3,81.8,71.8,80,72.7z"/>
<g class="st1">
	<path class="st0" d="M24.3,96.4V86.2h3.5c3.6,0,5.5,1.7,5.5,5c0,1.6-0.5,2.9-1.5,3.8c-1,1-2.3,1.4-3.9,1.4
		C27.9,96.4,24.3,96.4,24.3,96.4z M26.5,87.9v6.7h1.2c1,0,1.9-0.3,2.4-0.9c0.6-0.6,0.9-1.5,0.9-2.5s-0.3-1.8-0.9-2.4
		s-1.4-0.9-2.4-0.9H26.5z"/>
	<path class="st0" d="M43.7,96.4h-2.4l-0.8-2.3h-3.7L36,96.4h-2.3l3.8-10.2h2.6L43.7,96.4z M40,92.4l-1.2-3.6
		c-0.1-0.2-0.1-0.5-0.2-0.9h0.1c0,0.3-0.1,0.6-0.2,0.9l-1.2,3.6H40z"/>
	<path class="st0" d="M47.2,86.2v10.3H45V86.2H47.2z"/>
	<path class="st0" d="M59.6,96.4h-6V86.2h2.2v8.5h3.8V96.4z"/>
	<path class="st0" d="M63.2,86.2v10.3H61V86.2H63.2z"/>
	<path class="st0" d="M74.7,96.4h-2.2l-4.3-6.6c-0.2-0.3-0.4-0.6-0.5-0.8l0,0c0,0.4,0.1,0.9,0.1,1.6v5.8h-2.1V86.2h2.4l4.2,6.4
		c0.3,0.4,0.4,0.7,0.5,0.8l0,0c0-0.2-0.1-0.7-0.1-1.4v-5.8h2V96.4z"/>
	<path class="st0" d="M85.8,96.4h-2.2v-4.2h-4.4v4.2H77V86.2h2.2v4.1h4.4v-4.1h2.2V96.4z"/>
</g>
</svg>
