<?xml version="1.0" encoding="utf-8"?>
<!-- Generator: Adobe Illustrator 21.0.0, SVG Export Plug-In . SVG Version: 6.00 Build 0)  -->
<svg version="1.1" id="Layer_1" xmlns="http://www.w3.org/2000/svg" xmlns:xlink="http://www.w3.org/1999/xlink" x="0px" y="0px"
	 viewBox="0 0 200 200" style="enable-background:new 0 0 200 200;" xml:space="preserve">
<style type="text/css">
	.st0{fill:#1A73B8;}
	.st1{fill:#084D77;}
</style>
<path class="st0" d="M179.6,170.4c-7.1,2.2-19,4.8-21.9,4.8c-1.7,0-1.9-0.8-1.9-8.5v-8.5l6.9,4.6c6.2,4.1,9.1,4.9,9.1,2.4
	c0-0.6-10.5-7.5-15.7-10.4c-0.6-0.4-0.9-5.5-0.4-7.4c0.6-2.2,0.7-2.1,7.1,2.1c6,4.1,9,4.9,9,2.6c0-0.5-3.6-3.2-7.9-6
	c-7.5-4.7-7.9-5.2-8.3-9c-0.2-2.2,0-4.3,0.4-4.5c0.4-0.3,3.7,1.4,7.2,3.6c5.8,3.7,8.6,4.4,8.6,2.2c0-0.4-3.6-3-8-5.7
	c-4.4-2.7-8-5.4-8.1-6c-0.4-5.5-0.4-8.5-0.1-8.5c0.2,0,3.4,2,7.1,4.4c4.8,3.1,7.2,4.1,8.2,3.5c1.7-1.1,0.1-2.6-9-8.2
	c-5.4-3.3-6.1-4.1-6.2-7c-0.1-3.7-0.6-6.7-1.2-7.3c-0.5-0.5-15.7,8.5-15.7,9.4c0,0.3,1.5,1.8,3.3,3.3c1.7,1.5,2.9,3,2.5,3.4
	c-0.4,0.4-8.6-4.3-18.3-10.4c-9.7-6.1-18.2-11.1-18.8-11.1c-0.7,0-6.3,3.2-12.6,7c-10.6,6.4-13.2,7.6-11.7,5.2
	c0.3-0.5,5.9-4.1,12.5-8.1l12-7.3l0.3-6.4l0.3-6.3l14,8.9c7.7,5,14.6,10.1,15.3,11.4c1.2,2.4,1.3,2.4,4.2,0.8c1.7-0.9,3-2.2,3-2.7
	c-0.1-1.2-35.4-23.5-37.3-23.5c-0.7,0-6.4,3.1-12.7,7C88.6,88,83.2,91,83,90.7c-0.9-0.9,1.4-2.7,12.7-9.5l12-7.2l0.3-6.3l0.3-6.3
	l14.8,9.5c10.8,7,14.7,10,14.7,11.5c0,1.1,0.3,1.8,0.8,1.6c5-2.5,6.2-3.3,5.9-4.2c-0.4-1.4-34.7-23.4-36.6-23.5
	c-0.7-0.1-6.3,2.9-12.5,6.6c-6.1,3.6-11.4,6.8-11.8,7c-0.5,0.2-0.8,0-0.8-0.6c0-0.5,5.6-4.5,12.5-8.7l12.5-7.7v-7V39l-2.2,1.4
	c-1.3,0.8-9.2,5.9-17.5,11.3l-15.3,9.8v42.1l-0.1,42.1l-2.9-3.5c-4.5-6-10.4-15.4-13.7-28c-2.7-10.3-2.6-18.6-2.6-20.9
	c0.2-6.7,1.3-12.3,1.7-14.7c0,0,0.8-3.9,1.9-7.8c3.2-10.6,9-22.5,15.4-31.6c6.6-9.4,20.3-22.7,30.5-29.4c11.4-7.5,11.6-8,1.8-3.7
	C76.6,18.2,51.1,44.9,41.6,72.2c-5.3,15.2-6.4,35.3-2.8,49.6c3.7,14.8,10.8,24.6,12.3,26.7c6.5,8.9,13.3,14,18.1,17.5
	c5.3,3.9,16,10.9,31.3,15.2c1.9,0.5,7.9,2.1,16.1,3c25.4,2.7,44.9-4.1,52.5-7.1c9.3-3.7,16.7-7.2,16.7-7.9
	C185.8,168.8,183,169.3,179.6,170.4z M137.8,159.8v16.5l-4.7-0.6c-7.2-1-15.1-2.6-20.5-4.1l-4.8-1.5v-23V124l3.8,2.3
	c2,1.3,8.8,5.6,15,9.6l11.2,7.3V159.8z M144.5,140.9c-0.3,0.2-8.7-4.8-18.7-11.2l-18.3-11.5l-3.6,2.2c-2,1.2-7,4.3-11.1,6.8
	c-4.1,2.6-8.1,5-8.7,5.4c-0.8,0.4-1.3,0.2-1.3-0.6c0-0.7,5.6-4.7,12.5-8.8l12.5-7.5v-6.2v-6.3l12.8,8.2c7,4.4,13.7,8.7,15,9.6
	c1.9,1.2,2.2,2.3,2.2,7.3c0,5.4,0.2,5.9,3,7.5C143.5,137.5,145.4,140,144.5,140.9z"/>
<path class="st1" d="M179.5,175.5c-0.2-0.1-4.4,1.5-9.3,3.7c-32.6,14.3-65.5,14.3-93.9,0c-3-1.5-17.9-9.3-29.8-23.9
	c-5.6-6.8-8.7-13-9.4-14.3c-1-1.9-4-8.1-6.1-16.8c-2.3-9.2-2.4-16.5-2.4-21c-0.1-9.6,1.3-16.3,1.6-17.8c0,0,0.8-3.8,2-7.6
	c6.1-20.2,19.7-40.1,36.6-53.9c5.2-4.2,4.4-4.8-1.5-1C31.4,46,20.8,85.2,20.8,85.2c-4.9,19.7-2.3,35.8-1.3,41.3
	c1,5,2.8,14.3,8.7,24.9c5.4,9.7,11.7,16,15.1,19.3c11.7,11.5,24.9,18.9,42.5,23.7c1.2,0.3,3.4,0.9,6.4,1.4
	c4.3,0.8,12.3,2.1,22.4,1.9c3.5-0.1,11.2-0.4,21-2.5c2.5-0.5,9.9-2.5,19.2-6.1C161.8,186.4,180.2,176.3,179.5,175.5z"/>
</svg>
