<?xml version="1.0" encoding="utf-8"?>
<!-- Generator: Adobe Illustrator 21.0.0, SVG Export Plug-In . SVG Version: 6.00 Build 0)  -->
<svg version="1.1" id="Layer_1" xmlns="http://www.w3.org/2000/svg" xmlns:xlink="http://www.w3.org/1999/xlink" x="0px" y="0px"
	 viewBox="0 0 108.5 105.1" style="enable-background:new 0 0 108.5 105.1;" xml:space="preserve">
<style type="text/css">
	.st0{fill:#1A73B8;}
	.st1{fill:#084D77;}
	.st2{enable-background:new    ;}
</style>
<path class="st0" d="M83.5,70.2c-2.6,0.8-7,1.8-8,1.8c-0.6,0-0.7-0.3-0.7-3.1v-3.2l2.5,1.7c2.3,1.5,3.3,1.8,3.3,0.9
	c0-0.2-3.8-2.7-5.8-3.8c-0.2-0.1-0.3-2-0.1-2.7c0.2-0.8,0.3-0.8,2.6,0.8c2.2,1.5,3.3,1.8,3.3,1c0-0.2-1.3-1.2-2.9-2.2
	c-2.7-1.7-2.9-1.9-3-3.3c-0.1-0.8,0-1.6,0.1-1.6c0.1-0.1,1.4,0.5,2.6,1.3c2.1,1.4,3.2,1.6,3.2,0.8c0-0.1-1.3-1.1-2.9-2.1
	c-1.6-1-2.9-2-3-2.2c-0.1-2-0.1-3.1,0-3.1c0.1,0,1.2,0.7,2.6,1.6c1.8,1.1,2.6,1.5,3,1.3c0.6-0.4,0-1-3.3-3c-2-1.2-2.2-1.5-2.3-2.6
	c0-1.4-0.2-2.5-0.4-2.7s-5.8,3.1-5.8,3.4c0,0.1,0.5,0.7,1.2,1.2c0.6,0.5,1.1,1.1,0.9,1.2c-0.1,0.1-3.2-1.6-6.7-3.8
	c-3.3-2.2-6.4-4.1-6.7-4.1c-0.3,0-2.3,1.2-4.6,2.6c-3.9,2.3-4.8,2.8-4.3,1.9c0.1-0.2,2.2-1.5,4.6-3l4.4-2.7l0.1-2.3l0.1-2.3l5.1,3.3
	c2.8,1.8,5.4,3.7,5.6,4.2c0.4,0.9,0.5,0.9,1.5,0.3c0.6-0.3,1.1-0.8,1.1-1c0-0.4-13-8.6-13.7-8.6c-0.3,0-2.3,1.1-4.7,2.6
	c-2.3,1.4-4.3,2.5-4.3,2.4c-0.3-0.3,0.5-1,4.7-3.5l4.4-2.6l0.1-2.3l0.1-2.3l5.4,3.5c4,2.6,5.4,3.7,5.4,4.2c0,0.4,0.1,0.7,0.3,0.6
	c1.8-0.9,2.3-1.2,2.2-1.5c-0.1-0.5-12.7-8.6-13.4-8.6c-0.3,0-2.3,1.1-4.6,2.4c-2.2,1.3-4.2,2.5-4.3,2.6c-0.2,0.1-0.3,0-0.3-0.2
	s2.1-1.6,4.6-3.2l4.6-2.8v-2.6v-2.5l-0.8,0.2c-0.5,0.3-3.4,2.2-6.4,4.1l-5.6,3.7v15.4v15.4l-1.1-1.3c-1.7-2.2-3.8-5.7-5-10.3
	c-1-3.8-1-6.8-0.9-7.7c0.1-2.5,0.5-4.5,0.6-5.4c0,0,0.3-1.4,0.7-2.9c1.2-3.9,3.3-8.2,5.6-11.6c2.4-3.4,7.4-8.3,11.2-10.8
	c4.2-2.5,4.2-2.7,0.6-1.1C45.9,14.4,36.5,24.2,33,34.2c-1.9,5.6-2.3,12.9-1,18.2c1.4,5.4,3.9,9,4.5,9.8c2.4,3.3,4.9,5.1,6.6,6.4
	c1.9,1.4,5.9,4,11.5,5.6c0.7,0.2,2.9,0.8,5.9,1.1c9.3,1,16.4-1.5,19.2-2.6c3.4-1.4,6.1-2.6,6.1-2.9C85.8,69.7,84.8,69.8,83.5,70.2z
	 M68.3,66.4v6l-1.7-0.2c-2.6-0.4-5.5-1-7.5-1.5l-1.8-0.5v-8.5v-8.5l1.4,0.8c0.8,0.5,3.3,2.1,5.5,3.6l4.1,2.7V66.4z M70.8,59.4
	c-0.1,0.1-3.2-1.8-6.9-4.1l-6.7-4.2l-1.3,0.8c-0.7,0.4-2.6,1.6-4.1,2.5c-1.5,1-3,1.8-3.2,2c-0.3,0.1-0.5,0.1-0.5-0.2
	c0-0.3,2.1-1.7,4.6-3.2l4.6-2.7V48v-2.3l4.7,3c2.6,1.5,5.1,3.1,5.5,3.4c0.7,0.4,0.8,0.8,0.8,2.7c0,2,0.1,2.2,1.1,2.7
	C70.4,58.1,71.1,59,70.8,59.4z"/>
<path class="st1" d="M80.3,73.5c-12,5.2-24,5.2-34.4,0c-1.1-0.5-6.6-3.4-10.9-8.8c-2-2.5-3.2-4.7-3.4-5.2c-0.4-0.7-1.5-3-2.2-6.2
	c-0.8-3.4-0.9-6.1-0.9-7.7c0-3.5,0.5-6,0.6-6.5c0,0,0.3-1.4,0.7-2.8C32,28.9,37,21.6,43.2,16.5c1.8-1.5,1.5-1.8-0.7-0.4
	c-13.2,8.5-17,22.8-17,22.8C23.7,46.1,24.6,52,25,54.1c0.4,1.8,1,5.2,3.2,9.1c2,3.6,4.3,5.9,5.5,7.1c4.3,4.2,9.1,6.9,15.6,8.7
	c0.4,0.1,1.3,0.3,2.3,0.5c1.6,0.3,4.5,0.8,8.2,0.7c1.3,0,4.1-0.2,7.7-0.9c0.9-0.2,3.6-0.9,7.1-2.2c2.6-1,9.3-4.7,9.1-5
	C83.6,72.1,82.1,72.6,80.3,73.5z"/>
<g class="st2">
	<path class="st1" d="M24.6,97.2V87h3.5c3.6,0,5.5,1.7,5.5,5c0,1.6-0.5,2.9-1.5,3.8c-1,1-2.3,1.4-3.9,1.4
		C28.2,97.2,24.6,97.2,24.6,97.2z M26.8,88.7v6.7H28c1,0,1.9-0.3,2.4-0.9c0.6-0.6,0.9-1.5,0.9-2.5s-0.3-1.8-0.9-2.4S29,88.7,28,88.7
		H26.8z"/>
	<path class="st1" d="M44,97.2h-2.4l-0.8-2.3h-3.7l-0.8,2.3H34L37.8,87h2.6L44,97.2z M40.3,93.2l-1.2-3.6c-0.1-0.2-0.1-0.5-0.2-0.9
		H39c0,0.3-0.1,0.6-0.2,0.9l-1.2,3.6H40.3z"/>
	<path class="st1" d="M47.5,87v10.3h-2.2V87H47.5z"/>
	<path class="st1" d="M59.9,97.2h-6V87h2.2v8.5h3.8V97.2z"/>
	<path class="st1" d="M63.5,87v10.3h-2.2V87H63.5z"/>
	<path class="st1" d="M75,97.2h-2.2l-4.3-6.6c-0.2-0.3-0.4-0.6-0.5-0.8l0,0c0,0.4,0.1,0.9,0.1,1.6v5.8H66V87h2.4l4.2,6.4
		c0.3,0.4,0.4,0.7,0.5,0.8l0,0c0-0.2-0.1-0.7-0.1-1.4V87h2V97.2z"/>
	<path class="st1" d="M86.1,97.2h-2.2V93h-4.4v4.2h-2.2V87h2.2v4.1h4.4V87h2.2V97.2z"/>
</g>
</svg>
