<?xml version="1.0" encoding="utf-8"?>
<!-- Generator: Adobe Illustrator 21.0.0, SVG Export Plug-In . SVG Version: 6.00 Build 0)  -->
<svg version="1.1" id="Layer_1" xmlns="http://www.w3.org/2000/svg" xmlns:xlink="http://www.w3.org/1999/xlink" x="0px" y="0px"
	 viewBox="0 0 200 200" style="enable-background:new 0 0 200 200;" xml:space="preserve">
<style type="text/css">
	.st0{fill:#FFFFFF;}
</style>
<path class="st0" d="M179.4,170.7c-7.1,2.2-19.1,4.9-21.8,4.9c-1.6,0-1.9-0.8-1.9-8.5v-8.7l6.8,4.6c6.3,4.1,9,4.9,9,2.5
	c0-0.5-10.4-7.4-15.8-10.4c-0.5-0.3-0.8-5.5-0.3-7.4c0.5-2.2,0.8-2.2,7.1,2.2c6,4.1,9,4.9,9,2.7c0-0.5-3.5-3.3-7.9-6
	c-7.4-4.6-7.9-5.2-8.2-9c-0.3-2.2,0-4.4,0.3-4.4c0.3-0.3,3.8,1.4,7.1,3.5c5.7,3.8,8.7,4.4,8.7,2.2c0-0.3-3.5-3-7.9-5.7
	c-4.4-2.7-7.9-5.5-8.2-6c-0.3-5.5-0.3-8.5,0-8.5c0.3,0,3.3,1.9,7.1,4.4c4.9,3,7.1,4.1,8.2,3.5c1.6-1.1,0-2.7-9-8.2
	c-5.5-3.3-6-4.1-6.3-7.1c0-3.8-0.5-6.8-1.1-7.4c-0.5-0.5-15.8,8.5-15.8,9.3c0,0.3,1.4,1.9,3.3,3.3c1.6,1.4,3,3,2.5,3.3
	c-0.3,0.3-8.7-4.4-18.3-10.4c-9-6-17.5-11.2-18.3-11.2c-0.8,0-6.3,3.3-12.6,7.1c-10.6,6.3-13.1,7.6-11.7,5.2c0.3-0.5,6-4.1,12.6-8.2
	l12-7.4l0.3-6.3l0.3-6.3l13.9,9c7.6,4.9,14.7,10.1,15.3,11.5c1.1,2.5,1.4,2.5,4.1,0.8c1.6-0.8,3-2.2,3-2.7
	c0-1.1-35.5-23.5-37.4-23.5c-0.8,0-6.3,3-12.8,7.1c-6.3,3.8-11.7,6.8-11.7,6.6c-0.8-0.8,1.4-2.7,12.8-9.6l12-7.1l0.3-6.3l0.3-6.3
	l14.7,9.6c10.9,7.1,14.7,10.1,14.7,11.5c0,1.1,0.3,1.9,0.8,1.6c4.9-2.5,6.3-3.3,6-4.1c-0.3-1.4-34.7-23.5-36.6-23.5
	c-0.8,0-6.3,3-12.6,6.6c-6,3.5-11.5,6.8-11.7,7.1c-0.5,0.3-0.8,0-0.8-0.5c0-0.5,5.7-4.4,12.6-8.7l12.6-7.6v-7.1v-6.8l-2.2,0.5
	c-1.4,0.8-9.3,6-17.5,11.2L72.9,61.7v42v42l-3-3.5c-4.6-5.9-10.7-15.2-14.1-27.8c-2.7-10-2.6-18.1-2.6-20.6
	c0.2-6.3,1.2-11.6,2.2-15.5c0,0,0.8-3.8,1.9-7.9c3.3-10.6,9-22.4,15.3-31.7c6.6-9.3,20.2-22.7,30.6-29.5c11.5-6.8,11.5-7.4,1.6-3
	c-28.1,12-53.8,38.8-63.3,66.1c-5.2,15.3-6.3,35.2-2.7,49.7c3.8,14.7,10.6,24.6,12.3,26.8c6.6,9,13.4,13.9,18,17.5
	c5.2,3.8,16.1,10.9,31.4,15.3c1.9,0.5,7.9,2.2,16.1,3c25.4,2.7,44.8-4.1,52.4-7.1c9.3-3.8,16.7-7.1,16.7-7.9
	C185.7,169.3,183,169.6,179.4,170.7z M137.9,176.7l-30-6v-46.4l30,19.4V176.7z M144.7,141.2c-0.3,0.3-8.7-4.9-18.8-11.2l-18.3-11.5
	l-3.5,2.2c-1.9,1.1-7.1,4.4-11.2,6.8c-4.1,2.7-8.2,4.9-8.7,5.5c-0.8,0.3-1.4,0.3-1.4-0.5c0-0.8,5.7-4.6,12.6-8.7l12.6-7.4v-6.3v-6.3
	l12.8,8.2c7.1,4.1,13.9,8.5,15,9.3c1.9,1.1,2.2,2.2,2.2,7.4c0,5.5,0.3,6,3,7.4C143.6,137.6,145.5,140.1,144.7,141.2z"/>
<path class="st0" d="M170.7,179.7c-32.8,14.2-65.5,14.2-93.9,0c-3-1.4-18-9.3-29.8-24c-5.5-6.8-8.7-12.8-9.3-14.2
	c-1.1-1.9-4.1-8.2-6-16.9c-2.2-9.3-2.5-16.7-2.5-21c0-9.6,1.4-16.4,1.6-17.7c0,0,0.8-3.8,1.9-7.6c6-20.2,19.7-40.1,36.6-54.1
	c4.9-4.1,4.1-4.9-1.9-1.1C31.4,46.2,21,85.2,21,85.2c-4.9,19.7-2.5,35.8-1.4,41.5c1.1,4.9,2.7,14.2,8.7,24.8
	c5.5,9.8,11.7,16.1,15,19.4c11.7,11.5,24.8,18.8,42.6,23.8c1.1,0.3,3.5,0.8,6.3,1.4c4.4,0.8,12.3,2.2,22.4,1.9
	c3.5,0,11.2-0.5,21-2.5c2.5-0.5,9.8-2.5,19.4-6c7.1-2.7,25.4-12.8,24.8-13.7C179.7,175.9,175.6,177.2,170.7,179.7z"/>
</svg>
