<!-- Generator: Adobe Illustrator 21.1.0, SVG Export Plug-In  -->
<svg version="1.2" baseProfile="tiny"
	 xmlns="http://www.w3.org/2000/svg" xmlns:xlink="http://www.w3.org/1999/xlink" xmlns:a="http://ns.adobe.com/AdobeSVGViewerExtensions/3.0/"
	 x="0px" y="0px" width="821.2px" height="180px" viewBox="0 0 821.2 180" xml:space="preserve">
<defs>
</defs>
<path fill-rule="evenodd" fill="#3C3B3B" opacity="0.1" d="M0,1l0.2-1l821,158l-0.2,1L0,1z"/>
	<path fill-rule="evenodd" d="M722.2,137.1c1.4,0,2.5,1.1,2.5,2.5c0,1.4-1.1,2.5-2.5,2.5c-1.4,0-2.5-1.1-2.5-2.5
		C719.7,138.3,720.8,137.1,722.2,137.1z"/>
<path fill="#3C3B3B" opacity="0.1" d="M720.6,180c-22.6,0-41-18.4-41-41c0-22.6,18.4-41,41-41s41,18.4,41,41C761.6,161.6,743.2,180,720.6,180z
	 M720.6,99c-22.1,0-40,17.9-40,40c0,22.1,17.9,40,40,40s40-17.9,40-40C760.6,116.9,742.7,99,720.6,99z"/>
</svg>
